<?xml version="1.0" standalone="no"?>
<!DOCTYPE svg PUBLIC "-//W3C//DTD SVG 20010904//EN"
 "http://www.w3.org/TR/2001/REC-SVG-20010904/DTD/svg10.dtd">
<svg version="1.0" xmlns="http://www.w3.org/2000/svg"
 width="350.000000pt" height="350.000000pt" viewBox="0 0 350.000000 350.000000"
 preserveAspectRatio="xMidYMid meet">

<g transform="translate(0.000000,450.000000) scale(0.100000,-0.100000)"
fill="#000000" stroke="none">
<path d="M2125 3309 c-142 -6 -259 -22 -425 -58 -25 -6 -128 -40 -230 -76
-173 -61 -335 -139 -386 -187 -15 -13 -24 -16 -29 -8 -5 8 -10 8 -21 -1 -7 -6
-11 -15 -8 -20 3 -5 -13 -9 -35 -9 -22 0 -41 5 -44 13 -3 9 -7 9 -19 -1 -9 -7
-23 -10 -32 -6 -9 4 -16 1 -16 -6 0 -8 -9 -11 -25 -8 -14 3 -25 1 -25 -3 0 -5
-11 -9 -24 -9 -13 0 -29 -7 -36 -15 -14 -17 -10 -18 22 -6 46 17 78 21 78 11
0 -5 -9 -10 -20 -10 -50 0 -190 -46 -190 -63 0 -4 -4 -5 -10 -2 -13 8 -52 -19
-42 -30 4 -4 -4 -2 -17 5 -19 10 -22 10 -16 -1 6 -9 3 -11 -8 -6 -22 8 -67
-12 -67 -30 0 -11 7 -9 26 6 15 11 30 18 35 15 15 -9 0 -24 -18 -17 -12 5 -14
3 -8 -7 5 -8 4 -11 -3 -6 -17 10 -69 -74 -54 -88 3 -4 5 -27 3 -52 -2 -38 1
-46 18 -51 11 -3 17 -11 15 -18 -7 -18 50 -39 83 -31 16 4 60 9 98 11 180 10
213 13 250 28 22 9 52 16 67 17 31 0 91 47 81 63 -3 7 -2 8 3 4 4 -4 16 -43
24 -86 15 -71 15 -78 1 -78 -52 0 -66 -4 -52 -12 10 -6 -3 -14 -42 -25 -30 -9
-57 -20 -59 -24 -2 -5 -25 -23 -53 -42 -27 -18 -52 -36 -55 -39 -3 -3 -23 -18
-45 -34 -22 -15 -75 -60 -117 -100 -42 -39 -85 -79 -95 -87 -28 -23 -97 -160
-80 -160 8 0 32 -20 53 -45 21 -25 44 -43 50 -41 7 3 10 -3 7 -15 -5 -16 -1
-18 37 -14 24 2 58 -2 76 -10 24 -10 35 -10 44 -2 10 9 12 8 7 -4 -4 -12 1
-15 20 -13 14 1 27 5 30 8 3 3 14 1 23 -4 13 -7 22 -5 31 6 7 9 46 41 87 71
76 58 246 220 275 263 l17 25 31 -38 c17 -21 56 -56 85 -78 55 -41 71 -66 33
-54 -29 9 -53 -16 -79 -83 -12 -31 -29 -71 -36 -89 -8 -17 -14 -40 -14 -50 0
-11 -7 -34 -16 -51 -8 -17 -19 -69 -24 -114 -11 -105 -17 -132 -46 -190 -24
-47 -31 -88 -16 -88 4 0 16 -13 26 -29 11 -15 35 -37 55 -47 20 -10 39 -23 43
-29 4 -6 13 -2 23 10 16 19 16 19 9 -5 -6 -24 -6 -24 13 -8 10 10 28 15 38 12
27 -6 121 76 141 125 28 65 154 449 154 469 0 2 -6 2 -12 -1 -8 -3 -14 5 -14
20 -1 16 2 21 10 15 21 -17 221 -66 242 -60 5 1 25 -3 44 -9 19 -6 52 -14 73
-18 45 -7 47 -22 13 -90 -14 -26 -28 -65 -31 -86 -4 -22 -10 -37 -15 -34 -9 5
-18 -62 -27 -203 -5 -82 -3 -106 9 -120 8 -9 19 -29 26 -45 6 -15 18 -27 27
-27 8 0 15 -4 15 -9 0 -5 16 -33 36 -64 26 -40 40 -54 54 -50 11 3 24 -4 33
-17 12 -17 19 -20 34 -12 21 11 43 5 59 -16 9 -13 14 -12 32 6 39 39 45 91 38
327 -6 206 -10 259 -22 360 l-4 40 142 3 c83 2 163 9 190 17 45 13 47 13 54
-8 3 -12 15 -31 25 -42 10 -11 28 -51 39 -88 11 -37 34 -95 50 -129 31 -68
108 -158 134 -158 9 0 29 -8 43 -17 15 -10 50 -19 77 -20 53 -3 117 -9 126
-13 3 -1 9 -2 14 -1 4 1 14 -3 21 -9 16 -13 21 -6 29 45 11 64 -52 204 -173
388 -39 59 -71 111 -71 114 0 4 -12 19 -26 34 l-26 27 57 33 c31 19 84 54 117
77 63 46 78 46 83 0 2 -13 20 -41 41 -63 22 -23 52 -65 68 -95 54 -103 100
-167 135 -190 20 -13 48 -35 63 -48 24 -22 31 -24 68 -14 25 6 42 6 46 0 3 -5
13 -6 23 -3 29 12 66 13 78 3 18 -15 27 14 18 60 -15 81 -42 123 -216 337 -72
88 -128 143 -151 151 -13 3 -31 12 -41 19 -17 12 -14 17 35 76 62 75 136 149
149 149 5 0 9 -16 9 -36 0 -28 10 -48 48 -92 26 -32 49 -59 52 -62 3 -3 31
-39 62 -81 65 -88 126 -149 149 -149 23 0 142 39 153 50 6 6 18 10 28 10 21 0
22 31 3 100 -24 86 -143 263 -261 389 l-76 80 7 56 c5 40 4 60 -6 71 -12 15
-14 14 -21 -7 -5 -18 -6 -14 -5 15 2 37 -1 41 -75 100 -147 117 -373 256 -518
319 -198 85 -468 141 -715 149 -49 2 -162 0 -250 -3z m467 -253 c25 -8 61 -17
80 -20 133 -21 302 -70 363 -106 17 -9 46 -23 65 -31 32 -12 101 -49 201 -106
20 -12 57 -36 81 -55 25 -18 54 -38 64 -44 17 -11 0 -30 -171 -198 -149 -146
-214 -203 -300 -259 -152 -100 -199 -124 -309 -158 l-28 -8 18 22 c10 12 35
41 56 63 39 44 51 78 69 186 11 60 9 76 -15 179 -29 120 -74 246 -125 349 -38
75 -63 114 -110 163 -34 36 -35 37 -11 37 14 0 46 -7 72 -14z m-734 -118 c-23
-51 -45 -103 -50 -114 -6 -12 -11 -91 -11 -175 -1 -137 2 -167 27 -274 38
-160 53 -188 179 -316 37 -38 67 -71 67 -73 0 -13 -139 -14 -216 -1 -78 14
-94 21 -131 53 -23 20 -75 66 -115 101 -40 35 -81 80 -92 100 -10 20 -25 47
-34 61 -33 50 -128 297 -161 420 -10 36 -25 80 -35 98 -16 31 -16 33 1 38 10
3 27 10 38 14 211 87 238 96 375 129 77 19 113 25 177 29 20 2 20 -2 -19 -90z
m-790 -280 c-2 -6 -14 -18 -25 -25 -17 -12 -22 -12 -29 -1 -4 7 -4 10 1 6 11
-10 47 11 40 23 -4 5 -1 9 5 9 7 0 10 -5 8 -12z m322 -548 c8 -5 12 -11 10
-14 -3 -2 -14 2 -24 10 -22 15 -10 19 14 4z m1197 -66 c-3 -3 -12 -4 -19 -1
-8 3 -5 6 6 6 11 1 17 -2 13 -5z"/>
</g>
</svg>
